<?xml version="1.0" standalone="no"?><!DOCTYPE svg PUBLIC "-//W3C//DTD SVG 1.1//EN" "http://www.w3.org/Graphics/SVG/1.1/DTD/svg11.dtd"><svg t="1618824163784" class="icon" viewBox="0 0 1024 1024" version="1.1" xmlns="http://www.w3.org/2000/svg" p-id="15840" xmlns:xlink="http://www.w3.org/1999/xlink" width="200" height="200"><defs><style type="text/css"></style></defs><path d="M86.4 1024c-34.4 0-62.4-28-62.4-62.4V62.4C24 28 52 0 86.4 0h804c34.4 0 62.4 28 62.4 62.4v307.2c0 21.6-17.6 39.2-39.2 39.2s-39.2-17.6-39.2-39.2V77.6H101.6v868h244.8c21.6 0 39.2 17.6 39.2 39.2S368 1024 346.4 1024H86.4z m459.2 0c-47.2 0-86.4-38.4-86.4-86.4v-67.2c0-23.2 8.8-44.8 25.6-60.8l287.2-287.2c25.6-25.6 58.4-39.2 94.4-39.2s69.6 13.6 94.4 39.2c25.6 25.6 39.2 58.4 39.2 94.4s-13.6 69.6-39.2 94.4l-287.2 287.2c-16 16-37.6 25.6-60.8 25.6h-67.2z m320.8-462.4c-15.2 0-28.8 5.6-39.2 16l-289.6 289.6v78.4H616L905.6 656c21.6-21.6 21.6-56.8 0-78.4-10.4-10.4-24-16-39.2-16z m-614.4-10.4c-21.6 0-39.2-17.6-39.2-39.2s17.6-39.2 39.2-39.2h331.2c21.6 0 39.2 17.6 39.2 39.2s-17.6 39.2-39.2 39.2H252z m0-189.6c-21.6 0-39.2-17.6-39.2-39.2s17.6-39.2 39.2-39.2h472.8c21.6 0 39.2 17.6 39.2 39.2s-17.6 39.2-39.2 39.2H252z" p-id="15841" fill="#e6e6e6"></path></svg>