<svg t="1625910768817" class="icon" viewBox="0 0 1024 1024" version="1.1" xmlns="http://www.w3.org/2000/svg" p-id="2863" width="200" height="200"><path d="M809.152 167.488a56.512 56.512 0 0 1 56.32 56.32v497.792a104.192 104.192 0 0 1-15.296 28.8 136.32 136.32 0 0 1-47.36 36.352c-29.184 16.64-44.16 24.96-59.328 31.616-58.56 25.856-119.232 47.424-150.016 58.112a56.576 56.576 0 0 1-56.32-56.32l-0.064-279.104h-0.064V364.352c4.288-13.76 9.856-27.072 16.64-39.808 47.232-89.6 142.72-129.088 207.04-146.56v0.192a501.12 501.12 0 0 1 48.448-10.688z m-600.064-0.128c18.048 3.008 35.904 6.976 53.568 11.84A266.88 266.88 0 0 0 481.92 540.608v279.616a56.576 56.576 0 0 1-56.32 56.32 2045.376 2045.376 0 0 1-150.016-58.176c-14.592-6.592-29.568-15.04-59.264-31.616a136 136 0 0 1-48.256-36.48 103.296 103.296 0 0 1-15.296-28.8V223.68a56.512 56.512 0 0 1 56.32-56.32z m54.016 11.84c64.256 17.984 156.608 57.728 202.816 145.28 6.72 12.8 12.288 26.112 16.64 39.872v176.256A266.944 266.944 0 0 1 263.04 179.2z" p-id="2864"></path><path d="M881.28 770.304a135.808 135.808 0 0 1-47.488 36.352c-28.672 16-43.52 24.32-58.24 30.976 15.68 0 62.144 0.96 107.648-2.176 14.848-0.256 29.248-5.184 41.152-14.08 10.56-8.832 18.112-20.736 21.696-34.048V289.536a56.32 56.32 0 0 0-50.56-55.808c0.64 3.264 0.96 6.592 1.024 9.984v497.792a103.68 103.68 0 0 1-15.296 28.8zM128.768 233.984a56.32 56.32 0 0 0-50.56 55.552v497.792c3.52 13.44 11.072 25.344 21.632 34.304 11.904 8.832 26.24 13.76 41.152 14.08 45.44 3.072 91.968 2.496 107.584 2.112-14.72-6.656-29.44-14.912-58.24-30.912a135.68 135.68 0 0 1-47.36-36.416 103.296 103.296 0 0 1-15.296-28.8V243.904a54.4 54.4 0 0 1 1.088-9.92z" p-id="2865"></path></svg>
