<?xml version="1.0" standalone="no"?><!DOCTYPE svg PUBLIC "-//W3C//DTD SVG 1.1//EN" "http://www.w3.org/Graphics/SVG/1.1/DTD/svg11.dtd"><svg t="1618823108239" class="icon" viewBox="0 0 1024 1024" version="1.1" xmlns="http://www.w3.org/2000/svg" p-id="1252" xmlns:xlink="http://www.w3.org/1999/xlink" width="200" height="200"><defs><style type="text/css"></style></defs><path d="M411.2 553.6c6.4 15.2-1.6 52-26.4 67.2 0 0-168.8 82.4-175.2 276.8H8V120c0-22.4 31.2-37.6 31.2-37.6h326.4c12.8 0 31.2 15.2 31.2 37.6v112s-44 29.6-44 149.6c-5.6 120 52 164.8 58.4 172zM124 164c-21.6 0-38.4 18.4-38.4 40.8s17.6 40.8 38.4 40.8c21.6 0 38.4-18.4 38.4-40.8 0.8-22.4-16.8-40.8-38.4-40.8z m155.2 0c-21.6 0-38.4 18.4-38.4 40.8s17.6 40.8 38.4 40.8c21.6 0 38.4-18.4 38.4-40.8 0.8-22.4-16.8-40.8-38.4-40.8zM124 327.2c-21.6 0-38.4 18.4-38.4 40.8s17.6 40.8 38.4 40.8 38.4-18.4 38.4-40.8c0.8-22.4-16.8-40.8-38.4-40.8z m155.2 0c-21.6 0-38.4 18.4-38.4 40.8s17.6 40.8 38.4 40.8 38.4-18.4 38.4-40.8c0.8-22.4-16.8-40.8-38.4-40.8zM124 490.4c-21.6 0-38.4 18.4-38.4 40.8s17.6 40.8 38.4 40.8 38.4-18.4 38.4-40.8c0.8-22.4-16.8-40.8-38.4-40.8z m155.2 0c-21.6 0-38.4 18.4-38.4 40.8s17.6 40.8 38.4 40.8 38.4-18.4 38.4-40.8c0.8-22.4-16.8-40.8-38.4-40.8zM124 653.6c-21.6 0-38.4 18.4-38.4 40.8s17.6 40.8 38.4 40.8 38.4-18.4 38.4-40.8c0.8-22.4-16.8-40.8-38.4-40.8z" p-id="1253"></path><path d="M783.2 653.6V531.2c0-22.4 17.6-40.8 38.4-40.8s38.4 18.4 38.4 40.8v122.4H976c21.6 0 38.4 18.4 38.4 40.8s-17.6 40.8-38.4 40.8h-116v122.4c0 22.4-17.6 40.8-38.4 40.8s-38.4-18.4-38.4-40.8V735.2H667.2c-21.6 0-38.4-18.4-38.4-40.8s17.6-40.8 38.4-40.8h116z m16.8-244v-12c0-92-72-167.2-160.8-167.2-88.8 0-161.6 74.4-161.6 167.2 0 73.6 46.4 136 110.4 158.4v80C480 658.4 396.8 750.4 383.2 864.8h-0.8v0.8c0 18.4-14.4 33.6-32 33.6s-32-14.4-32-33.6v-3.2c0-4 0.8-7.2 1.6-10.4C336 736 408.8 636.8 512 591.2c-61.6-43.2-98.4-115.2-98.4-192.8 0-128.8 100.8-233.6 225.6-233.6s225.6 104.8 225.6 233.6v12l-64.8-0.8z" p-id="1254"></path></svg>