<?xml version="1.0" standalone="no"?><!DOCTYPE svg PUBLIC "-//W3C//DTD SVG 1.1//EN" "http://www.w3.org/Graphics/SVG/1.1/DTD/svg11.dtd"><svg t="1618823905807" class="icon" viewBox="0 0 1024 1024" version="1.1" xmlns="http://www.w3.org/2000/svg" p-id="11383" xmlns:xlink="http://www.w3.org/1999/xlink" width="200" height="200"><defs><style type="text/css"></style></defs><path d="M238.8 305.4a191.8 191.8 0 1 0 383.6 0 191.8 191.8 0 1 0-383.6 0zM948.2 693.4c-33.7-19.4-45.3-62.6-25.8-96.4 0.9-1.7 2-3.4 3.2-4.9-15.6-15.4-34.5-27.8-54.9-36.5l-0.1 0.1c-5.8 8.9-13.3 16.5-23.2 22.2-11.1 6.4-23.3 9.5-35.2 9.5-24.4 0-48.1-12.7-61.2-35.3-1-1.8-2-3.5-2.7-5.3-21.6 6-41.4 15.8-58.9 28.7l-0.1 0.1c4.9 9.6 7.6 20.4 7.6 31.8 0 38.9-31.5 70.5-70.5 70.5-2 0-3.8-0.1-5.7-0.3h-0.3c-3.7 14.4-5.7 29.6-5.7 45.2 0 6.9 0.4 13.7 1.1 20.3 10.8 0.5 21.5 3.5 31.4 9.3 33.8 19.5 45.3 62.6 25.9 96.4-1 1.7-2 3.3-3.2 4.9 15.6 15.4 34 27.8 54.3 36.8 5.9-9 13.9-16.8 23.8-22.6 11.1-6.4 23.2-9.4 35.2-9.4 24.4 0 48.1 12.7 61.2 35.3 1 1.8 2 3.5 2.7 5.3 21.6-6 41.3-14.3 58.8-27.3l0.3-0.3c-4.9-9.6-7.7-21.7-7.7-33.1 0-39 31.5-70.5 70.5-70.5 2 0 4 0.1 6 0.3 3.7-14.5 5.7-29.7 5.7-45.3 0-6.9-0.4-13.7-1.1-20.3-10.8-0.4-21.6-3.4-31.4-9.2z m-150.5 92.2c-34.6 0-62.7-28.1-62.7-62.7s28.1-62.7 62.7-62.7 62.7 28.1 62.7 62.7c0 34.7-28.1 62.7-62.7 62.7z" p-id="11384"></path><path d="M641.8 882.4l-24.3-23.9 19.6-27.8 1.2-1.8c4.1-7.1 5.2-15.3 3-23.2-2.1-7.9-7.1-14.4-14.4-18.6-4.1-2.4-8.4-3.7-12.9-3.9l-34.2-1.5-3.8-34.1c-0.9-8.1-1.4-16.4-1.4-24.8 0-18.8 2.3-37.4 6.9-55.2l8-30.1h32.9l1.9 0.2c0.7 0.1 1.2 0.1 1.9 0.1 16.8 0 30.5-13.7 30.5-30.5 0-4.8-1.1-9.4-3.2-13.5l-14.8-29.1c-28.5-16-59.2-28.7-91.5-37.3L443.9 694.9 327 530.9C167.1 579.6 49.9 725.6 43.8 900h618.5c-7.1-5.5-14-11.2-20.5-17.6z" p-id="11385"></path></svg>